<svg data-v-fde0c5aa="" xmlns="http://www.w3.org/2000/svg" viewBox="0 0 300 300" class="font"><!----><defs data-v-fde0c5aa=""><!----></defs><rect data-v-fde0c5aa="" fill="#E1F3FC" x="0" y="0" width="300px" height="300px" class="logo-background-square"></rect><defs data-v-fde0c5aa=""><linearGradient data-v-fde0c5aa="" gradientTransform="rotate(25)" id="ff9c8ee4-fc7c-4e27-a3fd-1c738fe82a22" x1="0%" y1="0%" x2="100%" y2="0%"><stop data-v-fde0c5aa="" offset="0%" stop-color="#0076DD" stop-opacity="1"></stop><stop data-v-fde0c5aa="" offset="100%" stop-color="#00CDE9" stop-opacity="1"></stop></linearGradient></defs><g data-v-fde0c5aa="" id="f52aa367-c107-49ca-8dd3-1a21bafc11b7" fill="url(#ff9c8ee4-fc7c-4e27-a3fd-1c738fe82a22)" transform="matrix(8.54368932038835,0,0,8.54368932038835,33.933980765851956,76.78058105765038)"><path d="M5.67 8.65L5.67 10.16L7.71 10.16C7.52 11.52 6.64 12.33 5.39 12.33C3.88 12.33 2.76 11.10 2.76 8.69C2.76 6.50 3.88 5.17 5.45 5.17C6.73 5.17 7.46 5.87 7.70 7.06L7.73 7.20L9.66 7.20L9.65 7.06C9.45 5.15 8.09 3.72 5.47 3.72C2.77 3.72 0.71 5.64 0.71 8.81C0.71 11.87 2.41 13.78 5.10 13.78C6.16 13.78 6.90 13.52 7.45 12.99L7.88 12.01L8.01 13.58L9.56 13.58L9.56 8.65ZM12.17 3.36C11.54 3.36 11.10 3.78 11.10 4.38C11.10 5.00 11.54 5.40 12.17 5.40C12.80 5.40 13.23 5.00 13.23 4.38C13.23 3.78 12.80 3.36 12.17 3.36ZM13.13 13.58L13.13 6.13L11.20 6.13L11.20 13.58ZM18.72 5.95C18.30 5.95 17.81 6.12 17.44 6.45L16.86 7.49L16.86 6.13L14.92 6.13L14.92 13.58L16.86 13.58L16.86 10.16C16.86 8.16 17.65 7.45 19.26 7.56L19.26 6.01C19.10 5.96 18.94 5.95 18.72 5.95ZM24.57 13.58L26.46 13.58C26.35 12.75 26.32 12.25 26.32 11.69L26.32 9.28C26.32 8.88 26.31 8.48 26.28 8.13C26.17 6.85 25.38 5.94 23.30 5.94C21.52 5.94 20.16 6.89 20.10 8.57L21.98 8.55C22.04 7.74 22.46 7.29 23.23 7.29C23.98 7.29 24.32 7.67 24.37 8.19C24.40 8.44 24.40 8.67 24.40 8.89L24.40 9.04L23.93 9.04C21.22 9.04 19.82 9.97 19.82 11.61C19.82 13.02 20.93 13.78 22.22 13.78C22.92 13.78 23.55 13.64 24.07 13.29L24.43 12.49ZM22.96 12.42C22.27 12.42 21.83 12.11 21.83 11.45C21.83 10.47 22.86 10.12 24.40 10.23L24.40 10.84C24.40 11.87 23.74 12.42 22.96 12.42Z"></path></g><!----><!----></svg>