<svg data-v-423bf9ae="" xmlns="http://www.w3.org/2000/svg" viewBox="0 0 259 91" class="iconLeft"><!----><!----><!----><g data-v-423bf9ae="" id="be117deb-7cbf-41ed-b61a-5b7b84bbae5f" fill="black" transform="matrix(5.758157347474804,0,0,5.758157347474804,105.97902384524751,-4.347408979475134)"><path d="M5.67 8.65L5.67 10.16L7.71 10.16C7.52 11.52 6.64 12.33 5.39 12.33C3.88 12.33 2.76 11.10 2.76 8.69C2.76 6.50 3.88 5.17 5.45 5.17C6.73 5.17 7.46 5.87 7.70 7.06L7.73 7.20L9.66 7.20L9.65 7.06C9.45 5.15 8.09 3.72 5.47 3.72C2.77 3.72 0.71 5.64 0.71 8.81C0.71 11.87 2.41 13.78 5.10 13.78C6.16 13.78 6.90 13.52 7.45 12.99L7.88 12.01L8.01 13.58L9.56 13.58L9.56 8.65ZM12.17 3.36C11.54 3.36 11.10 3.78 11.10 4.38C11.10 5.00 11.54 5.40 12.17 5.40C12.80 5.40 13.23 5.00 13.23 4.38C13.23 3.78 12.80 3.36 12.17 3.36ZM13.13 13.58L13.13 6.13L11.20 6.13L11.20 13.58ZM18.72 5.95C18.30 5.95 17.81 6.12 17.44 6.45L16.86 7.49L16.86 6.13L14.92 6.13L14.92 13.58L16.86 13.58L16.86 10.16C16.86 8.16 17.65 7.45 19.26 7.56L19.26 6.01C19.10 5.96 18.94 5.95 18.72 5.95ZM24.57 13.58L26.46 13.58C26.35 12.75 26.32 12.25 26.32 11.69L26.32 9.28C26.32 8.88 26.31 8.48 26.28 8.13C26.17 6.85 25.38 5.94 23.30 5.94C21.52 5.94 20.16 6.89 20.10 8.57L21.98 8.55C22.04 7.74 22.46 7.29 23.23 7.29C23.98 7.29 24.32 7.67 24.37 8.19C24.40 8.44 24.40 8.67 24.40 8.89L24.40 9.04L23.93 9.04C21.22 9.04 19.82 9.97 19.82 11.61C19.82 13.02 20.93 13.78 22.22 13.78C22.92 13.78 23.55 13.64 24.07 13.29L24.43 12.49ZM22.96 12.42C22.27 12.42 21.83 12.11 21.83 11.45C21.83 10.47 22.86 10.12 24.40 10.23L24.40 10.84C24.40 11.87 23.74 12.42 22.96 12.42Z"></path></g><!----><g data-v-423bf9ae="" id="809fb9ad-a891-4d93-8ccc-205273103eb9" transform="matrix(1.0007485797006632,0,0,1.0007485797006632,-4.037398444610197,-5.003767835787336)" stroke="none" fill="black"><path d="M37.84 38.334c.958 0 1.736-.777 1.736-1.734 0-.097-.014-.188-.028-.282l4.622-1.605a1.73 1.73 0 0 0 1.633 1.173c.731 0 1.355-.455 1.61-1.097l6.346 3.718a1.717 1.717 0 0 0-.096.544c0 .956.779 1.735 1.736 1.735.871 0 1.588-.648 1.711-1.486l7.032-4.088c.318.407.808.674 1.364.674.956 0 1.734-.778 1.734-1.735 0-.956-.778-1.735-1.734-1.735-.958 0-1.736.779-1.736 1.735 0 .107.013.212.032.316l-6.792 3.947a1.737 1.737 0 0 0-1.611-1.1c-.472 0-.898.189-1.211.497l-6.675-3.91a1.733 1.733 0 0 0-1.711-1.486c-.861 0-1.574.634-1.707 1.46l-4.87 1.691a1.725 1.725 0 0 0-1.386-.702 1.736 1.736 0 0 0 .001 3.47zm27.667-5.104a.92.92 0 1 1-.005 1.839.92.92 0 0 1 .005-1.839zm-10.108 4.901a.92.92 0 0 1 .919.919c0 .506-.413.919-.919.919s-.919-.413-.919-.919c0-.507.414-.919.919-.919zm-9.596-4.901a.92.92 0 0 1 0 1.838.92.92 0 0 1 0-1.838zm-7.963 2.451a.92.92 0 1 1 0 0z"></path><path d="M38.093 55.246c8.831 6.67 21.441 6.006 29.492-2.045 8.803-8.804 8.803-23.075 0-31.879-8.804-8.804-23.075-8.804-31.878 0-8.051 8.05-8.717 20.658-2.047 29.491l-5.477 5.478-1.877-1.875L5 75.725l8.182 8.182 21.31-21.309-1.877-1.871 5.478-5.481zm1.448-30.089c6.688-6.688 17.523-6.683 24.208 0 6.352 6.352 6.656 16.443.94 23.166V37.09c-2.172.48-3.989 3.183-7.146 4.921-.072.039-.135.062-.205.099v11.277c-.837.293-1.687.535-2.551.695V42.606c-1.992-.433-3.298-3.022-6.84-5.089a4.787 4.787 0 0 0-.511-.257v16.573c-.868-.219-1.721-.5-2.552-.857V36.798c-2.605.068-5.41 1.475-7.351 2.681v7.454c-4.578-6.665-3.917-15.848 2.008-21.776z"></path><path d="M94.431 46.87s-7.129-9.424-8.768-11.636c-1.639-2.213.247-5.49.247-5.49.974-4.018-3.572-11.07-5.972-14.427-.829-1.16-5.854-6.503-13.429-8.396C54.654 3.957 37.3 3.128 27.056 14.812c-14.988 17.092-9.427 35.108-7.15 40.651l6.4-6.404 1.877 1.876.62-.62c-5.792-10.142-4.208-23.238 4.226-31.67 4.972-4.974 11.584-7.713 18.616-7.713 7.033 0 13.644 2.739 18.617 7.713 4.973 4.973 7.711 11.585 7.711 18.617s-2.738 13.645-7.711 18.617c-4.964 4.965-11.564 7.699-18.585 7.699a26.521 26.521 0 0 1-13.083-3.477l-.619.621 1.876 1.871-5.111 5.111c2.927 1.818 3.809 4.322 3.809 4.322l2.296 5.979c1.063 3.443 1.228 8.193 1.228 8.193v8.768h31.302c0-.818.327-8.275.327-8.275 1.966-7.047 3.277-4.67 10.323-5.98 7.048-1.312 5.981-5.328 5.734-6.146-.244-.818-1.146-3.359-1.146-5.162s.736-2.949 2.212-4.18c1.477-1.229.656-2.539.656-2.539s-1.723-1.064-2.294-1.639c-.574-.574 1.72-1.393 1.72-1.393 2.213-.902-.082-4.016-.082-5.49s.247-2.375 2.787-3.852c2.538-1.475.819-3.44.819-3.44z"></path></g><!----></svg>